<?xml version="1.0" encoding="utf-8"?>
<!-- Generator: Adobe Illustrator 24.3.0, SVG Export Plug-In . SVG Version: 6.00 Build 0)  -->
<svg version="1.1" id="Layer_1" xmlns="http://www.w3.org/2000/svg" xmlns:xlink="http://www.w3.org/1999/xlink" x="0px" y="0px"
	 viewBox="0 0 1629 728" style="enable-background:new 0 0 1629 728;" xml:space="preserve">
<style type="text/css">
	.st0{stroke:#FFFFFF;stroke-width:8;stroke-miterlimit:10;}
	.st1{fill:#FFFFFF;}
	.st2{fill:url(#SVGID_1_);}
	.st3{fill:url(#SVGID_2_);}
	.st4{fill:url(#SVGID_3_);}
	.st5{fill:url(#SVGID_4_);}
	.st6{fill:url(#SVGID_5_);}
	.st7{fill:url(#SVGID_6_);}
	.st8{fill:url(#SVGID_7_);}
	.st9{fill:url(#SVGID_8_);}
	.st10{fill:url(#SVGID_9_);}
	.st11{fill:url(#SVGID_10_);}
	.st12{fill:url(#SVGID_11_);}
	.st13{fill:url(#SVGID_12_);}
	.st14{fill:url(#SVGID_13_);}
	.st15{fill:url(#SVGID_14_);}
	.st16{fill:url(#SVGID_15_);}
	.st17{fill:url(#SVGID_16_);}
	.st18{fill:url(#SVGID_17_);}
	.st19{fill:url(#SVGID_18_);}
	.st20{fill:url(#SVGID_19_);}
	.st21{fill:url(#SVGID_20_);}
	.st22{fill:url(#SVGID_21_);}
	.st23{fill:url(#SVGID_22_);}
	.st24{fill:url(#SVGID_23_);}
	.st25{fill:url(#SVGID_24_);}
	.st26{fill:url(#SVGID_25_);}
	.st27{fill:url(#SVGID_26_);}
	.st28{fill:url(#SVGID_27_);}
	.st29{fill:url(#SVGID_28_);}
	.st30{fill:url(#SVGID_29_);}
	.st31{fill:url(#SVGID_30_);}
	.st32{fill:url(#SVGID_31_);}
	.st33{fill:url(#SVGID_32_);}
	.st34{fill:url(#SVGID_33_);}
	.st35{fill:url(#SVGID_34_);}
	.st36{fill:url(#SVGID_35_);}
	.st37{fill:url(#SVGID_36_);}
	.st38{fill:url(#SVGID_37_);}
	.st39{fill:url(#SVGID_38_);}
	.st40{fill:url(#SVGID_39_);}
	.st41{fill:url(#SVGID_40_);}
	.st42{fill:url(#SVGID_41_);}
	.st43{fill:url(#SVGID_42_);}
	.st44{fill:url(#SVGID_43_);}
	.st45{fill:url(#SVGID_44_);}
	.st46{fill:url(#SVGID_45_);}
	.st47{fill:url(#SVGID_46_);}
	.st48{fill:url(#SVGID_47_);}
	.st49{fill:url(#SVGID_48_);}
	.st50{fill:url(#SVGID_49_);}
	.st51{fill:url(#SVGID_50_);}
	.st52{fill:url(#SVGID_51_);}
	.st53{fill:url(#SVGID_52_);}
	.st54{fill:url(#SVGID_53_);}
	.st55{fill:url(#SVGID_54_);}
	.st56{fill:url(#SVGID_55_);}
	.st57{fill:url(#SVGID_56_);}
	.st58{fill:url(#SVGID_57_);}
	.st59{fill:url(#SVGID_58_);}
	.st60{fill:url(#SVGID_59_);}
	.st61{fill:url(#SVGID_60_);}
	.st62{fill:url(#SVGID_61_);}
	.st63{fill:url(#SVGID_62_);}
	.st64{fill:url(#SVGID_63_);}
	.st65{fill:url(#SVGID_64_);}
	.st66{fill:url(#SVGID_65_);}
	.st67{fill:url(#SVGID_66_);}
	.st68{fill:url(#SVGID_67_);}
	.st69{fill:url(#SVGID_68_);}
	.st70{fill:url(#SVGID_69_);}
	.st71{fill:url(#SVGID_70_);}
	.st72{fill:url(#SVGID_71_);}
	.st73{fill:url(#SVGID_72_);}
	.st74{fill:url(#SVGID_73_);}
	.st75{fill:url(#SVGID_74_);}
	.st76{fill:url(#SVGID_75_);}
	.st77{fill:url(#SVGID_76_);}
	.st78{fill:url(#SVGID_77_);}
	.st79{fill:url(#SVGID_78_);}
	.st80{fill:url(#SVGID_79_);}
	.st81{fill:url(#SVGID_80_);}
	.st82{fill:url(#SVGID_81_);}
	.st83{fill:url(#SVGID_82_);}
	.st84{fill:url(#SVGID_83_);}
	.st85{fill:url(#SVGID_84_);}
	.st86{fill:url(#SVGID_85_);}
	.st87{fill:url(#SVGID_86_);}
	.st88{fill:url(#SVGID_87_);}
	.st89{fill:url(#SVGID_88_);}
	.st90{fill:#2C3895;}
	.st91{fill:url(#SVGID_89_);}
	.st92{fill:url(#SVGID_90_);}
	.st93{fill:url(#SVGID_91_);}
	.st94{fill:url(#SVGID_92_);}
	.st95{fill:url(#SVGID_93_);}
	.st96{fill:url(#SVGID_94_);}
	.st97{fill:url(#SVGID_95_);}
	.st98{fill:url(#SVGID_96_);}
	.st99{fill:url(#SVGID_97_);}
	.st100{fill:url(#SVGID_98_);}
	.st101{fill:url(#SVGID_99_);}
	.st102{fill:url(#SVGID_100_);}
	.st103{fill:url(#SVGID_101_);}
	.st104{fill:url(#SVGID_102_);}
	.st105{fill:url(#SVGID_103_);}
	.st106{fill:url(#SVGID_104_);}
	.st107{fill:url(#SVGID_105_);}
	.st108{fill:url(#SVGID_106_);}
	.st109{fill:url(#SVGID_107_);}
	.st110{fill:url(#SVGID_108_);}
	.st111{fill:url(#SVGID_109_);}
	.st112{fill:url(#SVGID_110_);}
	.st113{fill:url(#SVGID_111_);}
	.st114{fill:url(#SVGID_112_);}
	.st115{fill:url(#SVGID_113_);}
	.st116{fill:url(#SVGID_114_);}
	.st117{fill:url(#SVGID_115_);}
	.st118{fill:url(#SVGID_116_);}
	.st119{fill:url(#SVGID_117_);}
	.st120{fill:url(#SVGID_118_);}
	.st121{fill:url(#SVGID_119_);}
	.st122{fill:url(#SVGID_120_);}
	.st123{fill:url(#SVGID_121_);}
	.st124{fill:url(#SVGID_122_);}
	.st125{fill:url(#SVGID_123_);}
	.st126{fill:url(#SVGID_124_);}
	.st127{fill:url(#SVGID_125_);}
	.st128{fill:url(#SVGID_126_);}
	.st129{fill:url(#SVGID_127_);}
	.st130{fill:url(#SVGID_128_);}
	.st131{fill:url(#SVGID_129_);}
	.st132{fill:url(#SVGID_130_);}
	.st133{fill:url(#SVGID_131_);}
	.st134{fill:url(#SVGID_132_);}
	.st135{fill:url(#SVGID_133_);}
	.st136{fill:url(#SVGID_134_);}
	.st137{fill:url(#SVGID_135_);}
	.st138{fill:url(#SVGID_136_);}
	.st139{fill:url(#SVGID_137_);}
	.st140{fill:url(#SVGID_138_);}
	.st141{fill:url(#SVGID_139_);}
	.st142{font-family:'Poppins-Light';}
	.st143{font-size:172.7719px;}
	.st144{font-size:259.1579px;}
	.st145{fill:url(#SVGID_140_);}
	.st146{fill:url(#SVGID_141_);}
	.st147{fill:url(#SVGID_142_);}
	.st148{fill:url(#SVGID_143_);}
	.st149{fill:url(#SVGID_144_);}
	.st150{fill:url(#SVGID_145_);}
	.st151{fill:url(#SVGID_146_);}
	.st152{fill:url(#SVGID_147_);}
	.st153{fill:url(#SVGID_148_);}
	.st154{fill:url(#SVGID_149_);}
	.st155{fill:url(#SVGID_150_);}
	.st156{fill:url(#SVGID_151_);}
	.st157{fill:url(#SVGID_152_);}
	.st158{fill:url(#SVGID_153_);}
	.st159{fill:url(#SVGID_154_);}
	.st160{fill:url(#SVGID_155_);}
	.st161{fill:url(#SVGID_156_);}
	.st162{fill:url(#SVGID_157_);}
	.st163{fill:url(#SVGID_158_);}
	.st164{fill:url(#SVGID_159_);}
	.st165{fill:url(#SVGID_160_);}
</style>
<g>
	<g>
		<linearGradient id="SVGID_1_" gradientUnits="userSpaceOnUse" x1="117.4998" y1="345.4354" x2="284.8902" y2="345.4354">
			<stop  offset="0" style="stop-color:#EE2A7B"/>
			<stop  offset="1" style="stop-color:#662D91"/>
		</linearGradient>
		<path class="st2" d="M135.62,494.98c-2.56-3.9-5.47-7.61-7.61-11.72c-15.6-30.03-13.84-59.14,5.35-86.99
			c3.18-4.62,7.21-8.75,11.31-12.62c32.88-31.04,65.94-61.91,98.8-92.96c16.27-15.37,22.18-34.28,17.61-56.2
			c-7.16-34.38-45.67-54.63-78.17-41.27c-31.64,13-45.66,48.02-31.25,79.07c2.66,5.73,6.83,10.87,10.88,15.82
			c4.51,5.5,9.74,10.4,14.52,15.69c3.55,3.93,3.93,9.48,1.2,13.55c-2.88,4.29-8.06,6.15-12.83,4.42c-1.43-0.52-2.97-1.27-3.98-2.36
			c-8.85-9.48-18.81-18.09-25.44-29.4c-16.46-28.1-16.56-56.46-0.2-84.67c2.62-4.52,6.14-8.52,9.24-12.76
			c2.71-2.54,5.41-5.08,8.12-7.62c3.91-2.56,7.62-5.49,11.75-7.63c29.79-15.52,59.07-14.32,86.48,5.03
			c36.55,25.81,44.29,77.09,17.75,112.72c-3.36,4.52-7.23,8.74-11.33,12.61c-32.88,31.04-65.93,61.9-98.8,92.96
			c-16.27,15.37-22.22,34.25-17.66,56.18c7.16,34.4,45.59,54.67,78.12,41.36c31.75-12.99,45.82-48.31,31.22-79.31
			c-2.65-5.63-6.75-10.7-10.74-15.56c-4.45-5.42-9.61-10.26-14.33-15.47c-3.7-4.08-4.03-9.79-1.06-14.06
			c2.75-3.96,8.14-5.7,12.76-3.97c1.34,0.5,2.78,1.2,3.73,2.22c8.87,9.46,18.82,18.08,25.43,29.4
			c16.42,28.12,17.12,56.87-0.04,84.58c-17.78,28.71-44.69,40.9-78.22,37.67c-15.93-1.54-30.01-8.13-42.26-18.49
			c-0.88-0.74-1.82-1.41-2.74-2.11C140.7,500.39,138.16,497.69,135.62,494.98z"/>
	</g>
	<g>
		<text transform="matrix(1 0 0 1 336.4958 282.3647)"><tspan x="0" y="0" class="st142 st143">never ending </tspan><tspan x="0" y="239.96" class="st142 st144">solutions</tspan></text>
		<g>
			<linearGradient id="SVGID_2_" gradientUnits="userSpaceOnUse" x1="348.9355" y1="338.5488" x2="1459.1543" y2="338.5488">
				<stop  offset="0" style="stop-color:#EE2A7B"/>
				<stop  offset="1" style="stop-color:#662D91"/>
			</linearGradient>
			<path class="st3" d="M422.19,196.76c7.14,6.97,10.71,17.08,10.71,30.32v55.29h-11.92v-53.91c0-10.25-2.56-18.08-7.69-23.5
				c-5.13-5.41-12.12-8.12-20.99-8.12c-9.1,0-16.36,2.88-21.77,8.64c-5.42,5.76-8.12,14.23-8.12,25.4v51.49h-12.09v-94.33h12.09
				v16.07c2.99-5.76,7.31-10.16,12.96-13.22c5.64-3.05,12.03-4.58,19.18-4.58C405.83,186.3,415.05,189.79,422.19,196.76z"/>
			<linearGradient id="SVGID_3_" gradientUnits="userSpaceOnUse" x1="348.9355" y1="338.5488" x2="1459.1543" y2="338.5488">
				<stop  offset="0" style="stop-color:#EE2A7B"/>
				<stop  offset="1" style="stop-color:#662D91"/>
			</linearGradient>
			<path class="st4" d="M544.69,239.86h-78.27c0.35,7.14,2.07,13.25,5.18,18.31c3.11,5.07,7.2,8.9,12.27,11.49
				c5.07,2.59,10.6,3.89,16.59,3.89c7.83,0,14.43-1.9,19.78-5.7c5.36-3.8,8.9-8.92,10.63-15.38h12.79
				c-2.31,9.22-7.23,16.73-14.77,22.55c-7.54,5.82-17.02,8.72-28.42,8.72c-8.87,0-16.82-1.99-23.84-5.96
				c-7.03-3.97-12.53-9.62-16.5-16.93s-5.96-15.87-5.96-25.66c0-9.79,1.96-18.37,5.87-25.74c3.92-7.37,9.39-13.02,16.41-16.93
				c7.02-3.91,15.03-5.88,24.01-5.88s16.85,1.96,23.58,5.88c6.74,3.92,11.92,9.19,15.55,15.81c3.63,6.62,5.44,13.97,5.44,22.03
				C545.03,234.51,544.92,237.68,544.69,239.86z M528.53,212.05c-2.94-4.95-6.94-8.7-12.01-11.23c-5.07-2.53-10.6-3.8-16.59-3.8
				c-8.98,0-16.65,2.88-22.98,8.64c-6.34,5.76-9.85,13.88-10.54,24.36h66.34C532.88,222.99,531.47,217,528.53,212.05z"/>
			<linearGradient id="SVGID_4_" gradientUnits="userSpaceOnUse" x1="348.9355" y1="338.5488" x2="1459.1543" y2="338.5488">
				<stop  offset="0" style="stop-color:#EE2A7B"/>
				<stop  offset="1" style="stop-color:#662D91"/>
			</linearGradient>
			<path class="st5" d="M600.66,270.62l31.79-82.59h12.79l-37.84,94.33h-13.65l-37.84-94.33h12.96L600.66,270.62z"/>
			<linearGradient id="SVGID_5_" gradientUnits="userSpaceOnUse" x1="348.9355" y1="338.5488" x2="1459.1543" y2="338.5488">
				<stop  offset="0" style="stop-color:#EE2A7B"/>
				<stop  offset="1" style="stop-color:#662D91"/>
			</linearGradient>
			<path class="st6" d="M746.65,239.86h-78.27c0.35,7.14,2.07,13.25,5.18,18.31c3.11,5.07,7.2,8.9,12.27,11.49
				c5.07,2.59,10.6,3.89,16.59,3.89c7.83,0,14.43-1.9,19.78-5.7c5.36-3.8,8.9-8.92,10.63-15.38h12.79
				c-2.31,9.22-7.23,16.73-14.77,22.55c-7.54,5.82-17.02,8.72-28.42,8.72c-8.87,0-16.82-1.99-23.84-5.96
				c-7.03-3.97-12.53-9.62-16.5-16.93s-5.96-15.87-5.96-25.66c0-9.79,1.96-18.37,5.87-25.74c3.92-7.37,9.39-13.02,16.41-16.93
				c7.02-3.91,15.03-5.88,24.01-5.88s16.85,1.96,23.58,5.88c6.74,3.92,11.92,9.19,15.55,15.81c3.63,6.62,5.44,13.97,5.44,22.03
				C747,234.51,746.88,237.68,746.65,239.86z M730.5,212.05c-2.94-4.95-6.94-8.7-12.01-11.23c-5.07-2.53-10.6-3.8-16.59-3.8
				c-8.98,0-16.65,2.88-22.98,8.64c-6.34,5.76-9.85,13.88-10.54,24.36h66.34C734.85,222.99,733.44,217,730.5,212.05z"/>
			<linearGradient id="SVGID_6_" gradientUnits="userSpaceOnUse" x1="348.9355" y1="338.5488" x2="1459.1543" y2="338.5488">
				<stop  offset="0" style="stop-color:#EE2A7B"/>
				<stop  offset="1" style="stop-color:#662D91"/>
			</linearGradient>
			<path class="st7" d="M793.39,191.14c5.47-3.22,12.18-4.84,20.13-4.84v12.61h-3.28c-8.75,0-15.78,2.36-21.08,7.08
				c-5.3,4.72-7.95,12.61-7.95,23.67v52.7h-12.09v-94.33h12.09v16.76C783.86,198.92,787.92,194.37,793.39,191.14z"/>
			<linearGradient id="SVGID_7_" gradientUnits="userSpaceOnUse" x1="348.9355" y1="338.5488" x2="1459.1543" y2="338.5488">
				<stop  offset="0" style="stop-color:#EE2A7B"/>
				<stop  offset="1" style="stop-color:#662D91"/>
			</linearGradient>
			<path class="st8" d="M964,239.86h-78.27c0.35,7.14,2.07,13.25,5.18,18.31c3.11,5.07,7.2,8.9,12.27,11.49
				c5.07,2.59,10.6,3.89,16.59,3.89c7.83,0,14.43-1.9,19.78-5.7c5.36-3.8,8.9-8.92,10.63-15.38h12.79
				c-2.31,9.22-7.23,16.73-14.77,22.55c-7.54,5.82-17.02,8.72-28.42,8.72c-8.87,0-16.82-1.99-23.84-5.96
				c-7.03-3.97-12.53-9.62-16.5-16.93s-5.96-15.87-5.96-25.66c0-9.79,1.96-18.37,5.87-25.74c3.92-7.37,9.39-13.02,16.41-16.93
				c7.02-3.91,15.03-5.88,24.01-5.88s16.85,1.96,23.58,5.88c6.74,3.92,11.92,9.19,15.55,15.81c3.63,6.62,5.44,13.97,5.44,22.03
				C964.34,234.51,964.23,237.68,964,239.86z M947.84,212.05c-2.94-4.95-6.94-8.7-12.01-11.23c-5.07-2.53-10.6-3.8-16.59-3.8
				c-8.98,0-16.65,2.88-22.98,8.64c-6.34,5.76-9.85,13.88-10.54,24.36h66.34C952.19,222.99,950.78,217,947.84,212.05z"/>
			<linearGradient id="SVGID_8_" gradientUnits="userSpaceOnUse" x1="348.9355" y1="338.5488" x2="1459.1543" y2="338.5488">
				<stop  offset="0" style="stop-color:#EE2A7B"/>
				<stop  offset="1" style="stop-color:#662D91"/>
			</linearGradient>
			<path class="st9" d="M1058.33,196.76c7.14,6.97,10.71,17.08,10.71,30.32v55.29h-11.92v-53.91c0-10.25-2.56-18.08-7.69-23.5
				c-5.13-5.41-12.12-8.12-20.99-8.12c-9.1,0-16.36,2.88-21.77,8.64c-5.42,5.76-8.12,14.23-8.12,25.4v51.49h-12.09v-94.33h12.09
				v16.07c2.99-5.76,7.31-10.16,12.96-13.22c5.64-3.05,12.03-4.58,19.18-4.58C1041.97,186.3,1051.19,189.79,1058.33,196.76z"/>
			<linearGradient id="SVGID_9_" gradientUnits="userSpaceOnUse" x1="348.9355" y1="338.5488" x2="1459.1543" y2="338.5488">
				<stop  offset="0" style="stop-color:#EE2A7B"/>
				<stop  offset="1" style="stop-color:#662D91"/>
			</linearGradient>
			<path class="st10" d="M1096.17,209.54c3.92-7.31,9.3-12.96,16.15-16.93c6.85-3.97,14.6-5.96,23.24-5.96
				c8.29,0,15.78,2.02,22.46,6.05c6.68,4.03,11.58,9.27,14.69,15.72v-53.9h12.09v127.85h-12.09v-21.08
				c-2.88,6.56-7.6,11.95-14.17,16.15c-6.57,4.21-14.28,6.3-23.15,6.3c-8.64,0-16.39-2.01-23.24-6.05
				c-6.85-4.03-12.21-9.73-16.07-17.1c-3.86-7.37-5.79-15.89-5.79-25.57S1092.25,216.86,1096.17,209.54z M1168.04,215.16
				c-3.11-5.76-7.34-10.19-12.7-13.3c-5.36-3.11-11.26-4.67-17.71-4.67c-6.68,0-12.67,1.5-17.97,4.49c-5.3,3-9.48,7.34-12.53,13.04
				c-3.05,5.7-4.58,12.47-4.58,20.3c0,7.72,1.53,14.49,4.58,20.3c3.05,5.82,7.23,10.25,12.53,13.3c5.3,3.05,11.29,4.58,17.97,4.58
				c6.45,0,12.35-1.55,17.71-4.66c5.36-3.11,9.59-7.54,12.7-13.3c3.11-5.76,4.67-12.44,4.67-20.04
				C1172.71,227.6,1171.15,220.92,1168.04,215.16z"/>
			<linearGradient id="SVGID_10_" gradientUnits="userSpaceOnUse" x1="348.9355" y1="338.5488" x2="1459.1543" y2="338.5488">
				<stop  offset="0" style="stop-color:#EE2A7B"/>
				<stop  offset="1" style="stop-color:#662D91"/>
			</linearGradient>
			<path class="st11" d="M1212.27,167.64c-1.73-1.73-2.59-3.86-2.59-6.39c0-2.53,0.86-4.63,2.59-6.31c1.73-1.67,3.8-2.51,6.22-2.51
				c2.42,0,4.49,0.84,6.22,2.51c1.73,1.67,2.59,3.77,2.59,6.31c0,2.54-0.86,4.66-2.59,6.39c-1.73,1.73-3.8,2.59-6.22,2.59
				C1216.07,170.24,1214,169.37,1212.27,167.64z M1224.53,188.03v94.33h-12.09v-94.33H1224.53z"/>
			<linearGradient id="SVGID_11_" gradientUnits="userSpaceOnUse" x1="348.9355" y1="338.5488" x2="1459.1543" y2="338.5488">
				<stop  offset="0" style="stop-color:#EE2A7B"/>
				<stop  offset="1" style="stop-color:#662D91"/>
			</linearGradient>
			<path class="st12" d="M1323.88,196.76c7.14,6.97,10.71,17.08,10.71,30.32v55.29h-11.92v-53.91c0-10.25-2.56-18.08-7.69-23.5
				c-5.13-5.41-12.12-8.12-20.99-8.12c-9.1,0-16.36,2.88-21.77,8.64c-5.42,5.76-8.12,14.23-8.12,25.4v51.49H1252v-94.33h12.09v16.07
				c2.99-5.76,7.31-10.16,12.96-13.22c5.64-3.05,12.03-4.58,19.18-4.58C1307.52,186.3,1316.73,189.79,1323.88,196.76z"/>
			<linearGradient id="SVGID_12_" gradientUnits="userSpaceOnUse" x1="348.9355" y1="338.5488" x2="1459.1543" y2="338.5488">
				<stop  offset="0" style="stop-color:#EE2A7B"/>
				<stop  offset="1" style="stop-color:#662D91"/>
			</linearGradient>
			<path class="st13" d="M1424.08,192.87c6.57,4.15,11.29,9.39,14.17,15.72v-20.56h12.09v96.75c0,8.64-1.87,16.3-5.61,22.98
				c-3.75,6.68-8.96,11.84-15.64,15.46c-6.68,3.63-14.28,5.44-22.81,5.44c-12.09,0-22.14-2.88-30.15-8.64
				c-8.01-5.76-12.99-13.59-14.94-23.5h11.92c2.07,6.57,6.02,11.81,11.83,15.72c5.81,3.91,12.93,5.88,21.34,5.88
				c6.1,0,11.58-1.3,16.41-3.89c4.84-2.59,8.64-6.42,11.4-11.49c2.76-5.07,4.15-11.06,4.15-17.97v-23.32
				c-3,6.45-7.75,11.78-14.25,15.98c-6.51,4.21-14.2,6.3-23.06,6.3c-8.64,0-16.39-2.01-23.24-6.05c-6.85-4.03-12.21-9.73-16.07-17.1
				c-3.86-7.37-5.79-15.89-5.79-25.57s1.93-18.17,5.79-25.48c3.86-7.31,9.21-12.96,16.07-16.93c6.85-3.97,14.6-5.96,23.24-5.96
				C1409.8,186.65,1417.52,188.72,1424.08,192.87z M1433.58,215.16c-3.11-5.76-7.34-10.19-12.7-13.3
				c-5.36-3.11-11.26-4.67-17.71-4.67c-6.68,0-12.67,1.5-17.97,4.49c-5.3,3-9.48,7.34-12.53,13.04c-3.05,5.7-4.58,12.47-4.58,20.3
				c0,7.72,1.53,14.49,4.58,20.3c3.05,5.82,7.23,10.25,12.53,13.3c5.3,3.05,11.29,4.58,17.97,4.58c6.45,0,12.35-1.55,17.71-4.66
				c5.36-3.11,9.59-7.54,12.7-13.3c3.11-5.76,4.67-12.44,4.67-20.04C1438.25,227.6,1436.7,220.92,1433.58,215.16z"/>
			<linearGradient id="SVGID_13_" gradientUnits="userSpaceOnUse" x1="348.9355" y1="338.5488" x2="1459.1543" y2="338.5488">
				<stop  offset="0" style="stop-color:#EE2A7B"/>
				<stop  offset="1" style="stop-color:#662D91"/>
			</linearGradient>
			<path class="st14" d="M366.17,513.12c-10.28-7.52-16.03-17.75-17.23-30.71h18.66c0.86,7.95,4.62,14.38,11.27,19.31
				c6.65,4.92,15.59,7.39,26.82,7.39c9.85,0,17.58-2.33,23.19-7c5.61-4.66,8.42-10.45,8.42-17.36c0-4.84-1.55-8.81-4.67-11.92
				c-3.11-3.11-7.04-5.57-11.79-7.38c-4.75-1.81-11.19-3.76-19.31-5.83c-10.54-2.76-19.09-5.53-25.66-8.29
				c-6.57-2.76-12.14-6.87-16.71-12.31c-4.58-5.44-6.87-12.74-6.87-21.9c0-6.91,2.07-13.3,6.22-19.18
				c4.15-5.87,10.02-10.54,17.62-13.99c7.6-3.46,16.24-5.18,25.92-5.18c15.2,0,27.47,3.85,36.8,11.53
				c9.33,7.69,14.34,18.27,15.03,31.75h-18.14c-0.52-8.29-3.76-14.99-9.72-20.08c-5.96-5.09-14.12-7.65-24.49-7.65
				c-9.16,0-16.59,2.16-22.29,6.48c-5.7,4.32-8.55,9.68-8.55,16.07c0,5.53,1.68,10.07,5.05,13.61c3.37,3.54,7.56,6.31,12.57,8.29
				c5.01,1.99,11.75,4.19,20.21,6.61c10.19,2.77,18.31,5.44,24.36,8.04c6.05,2.59,11.23,6.39,15.55,11.4
				c4.32,5.01,6.56,11.66,6.74,19.96c0,7.6-2.07,14.38-6.22,20.34s-9.94,10.67-17.36,14.12c-7.43,3.46-15.98,5.18-25.66,5.18
				C389.71,524.4,376.45,520.64,366.17,513.12z"/>
			<linearGradient id="SVGID_14_" gradientUnits="userSpaceOnUse" x1="348.9355" y1="338.5488" x2="1459.1543" y2="338.5488">
				<stop  offset="0" style="stop-color:#EE2A7B"/>
				<stop  offset="1" style="stop-color:#662D91"/>
			</linearGradient>
			<path class="st15" d="M515.44,515.46c-10.63-5.96-19.01-14.42-25.14-25.4c-6.13-10.97-9.2-23.8-9.2-38.48
				c0-14.68,3.11-27.51,9.33-38.49c6.22-10.97,14.68-19.44,25.4-25.4c10.71-5.96,22.72-8.94,36.02-8.94
				c13.3,0,25.35,2.98,36.15,8.94c10.8,5.96,19.26,14.43,25.4,25.4c6.13,10.97,9.2,23.8,9.2,38.49c0,14.51-3.11,27.3-9.33,38.36
				c-6.22,11.06-14.77,19.57-25.66,25.53c-10.88,5.96-22.98,8.94-36.28,8.94C538.03,524.4,526.07,521.42,515.44,515.46z
				 M577.25,502.24c7.95-4.23,14.38-10.62,19.31-19.18c4.92-8.55,7.39-19.05,7.39-31.49s-2.42-22.94-7.26-31.49
				c-4.84-8.55-11.23-14.94-19.18-19.18c-7.95-4.23-16.59-6.35-25.92-6.35c-9.33,0-17.97,2.12-25.92,6.35
				c-7.95,4.24-14.3,10.62-19.05,19.18c-4.75,8.55-7.13,19.05-7.13,31.49s2.37,22.94,7.13,31.49c4.75,8.55,11.05,14.95,18.92,19.18
				c7.86,4.24,16.46,6.35,25.79,6.35C560.67,508.59,569.3,506.48,577.25,502.24z"/>
			<linearGradient id="SVGID_15_" gradientUnits="userSpaceOnUse" x1="348.9355" y1="338.5488" x2="1459.1543" y2="338.5488">
				<stop  offset="0" style="stop-color:#EE2A7B"/>
				<stop  offset="1" style="stop-color:#662D91"/>
			</linearGradient>
			<path class="st16" d="M673.92,330.55v191.78h-18.14V330.55H673.92z"/>
			<linearGradient id="SVGID_16_" gradientUnits="userSpaceOnUse" x1="348.9355" y1="338.5488" x2="1459.1543" y2="338.5488">
				<stop  offset="0" style="stop-color:#EE2A7B"/>
				<stop  offset="1" style="stop-color:#662D91"/>
			</linearGradient>
			<path class="st17" d="M837.7,380.83v141.5h-18.14v-24.88c-4.15,8.81-10.54,15.55-19.18,20.21c-8.64,4.67-18.31,7-29.03,7
				c-16.93,0-30.75-5.22-41.46-15.68c-10.71-10.45-16.07-25.61-16.07-45.48v-82.67h17.88v80.6c0,15.38,3.84,27.13,11.53,35.25
				c7.69,8.12,18.18,12.18,31.49,12.18c13.65,0,24.53-4.32,32.65-12.96c8.12-8.64,12.18-21.34,12.18-38.1v-76.97H837.7z"/>
			<linearGradient id="SVGID_17_" gradientUnits="userSpaceOnUse" x1="348.9355" y1="338.5488" x2="1459.1543" y2="338.5488">
				<stop  offset="0" style="stop-color:#EE2A7B"/>
				<stop  offset="1" style="stop-color:#662D91"/>
			</linearGradient>
			<path class="st18" d="M902.75,396.12v87.86c0,8.64,1.64,14.6,4.92,17.88c3.28,3.29,9.07,4.92,17.36,4.92h16.59v15.55h-19.44
				c-12.79,0-22.29-2.98-28.51-8.94s-9.33-15.76-9.33-29.41v-87.86h-19.7v-15.29h19.7v-35.51h18.4v35.51h38.87v15.29H902.75z"/>
			<linearGradient id="SVGID_18_" gradientUnits="userSpaceOnUse" x1="348.9355" y1="338.5488" x2="1459.1543" y2="338.5488">
				<stop  offset="0" style="stop-color:#EE2A7B"/>
				<stop  offset="1" style="stop-color:#662D91"/>
			</linearGradient>
			<path class="st19" d="M971.17,350.24c-2.59-2.59-3.89-5.79-3.89-9.59c0-3.8,1.3-6.95,3.89-9.46c2.59-2.5,5.7-3.76,9.33-3.76
				c3.63,0,6.74,1.25,9.33,3.76c2.59,2.51,3.89,5.66,3.89,9.46c0,3.8-1.3,7-3.89,9.59s-5.7,3.89-9.33,3.89
				C976.87,354.13,973.76,352.84,971.17,350.24z M989.57,380.83v141.5h-18.14v-141.5H989.57z"/>
			<linearGradient id="SVGID_19_" gradientUnits="userSpaceOnUse" x1="348.9355" y1="338.5488" x2="1459.1543" y2="338.5488">
				<stop  offset="0" style="stop-color:#EE2A7B"/>
				<stop  offset="1" style="stop-color:#662D91"/>
			</linearGradient>
			<path class="st20" d="M1056.81,515.46c-10.63-5.96-19.01-14.42-25.14-25.4c-6.13-10.97-9.2-23.8-9.2-38.48
				c0-14.68,3.11-27.51,9.33-38.49c6.22-10.97,14.68-19.44,25.4-25.4c10.71-5.96,22.72-8.94,36.02-8.94
				c13.3,0,25.35,2.98,36.15,8.94c10.8,5.96,19.26,14.43,25.4,25.4c6.13,10.97,9.2,23.8,9.2,38.49c0,14.51-3.11,27.3-9.33,38.36
				c-6.22,11.06-14.77,19.57-25.66,25.53c-10.88,5.96-22.98,8.94-36.28,8.94C1079.4,524.4,1067.44,521.42,1056.81,515.46z
				 M1118.62,502.24c7.95-4.23,14.38-10.62,19.31-19.18c4.92-8.55,7.39-19.05,7.39-31.49s-2.42-22.94-7.26-31.49
				c-4.84-8.55-11.23-14.94-19.18-19.18c-7.95-4.23-16.59-6.35-25.92-6.35c-9.33,0-17.97,2.12-25.92,6.35
				c-7.95,4.24-14.3,10.62-19.05,19.18c-4.75,8.55-7.13,19.05-7.13,31.49s2.37,22.94,7.13,31.49c4.75,8.55,11.05,14.95,18.92,19.18
				c7.86,4.24,16.46,6.35,25.79,6.35C1102.04,508.59,1110.67,506.48,1118.62,502.24z"/>
			<linearGradient id="SVGID_20_" gradientUnits="userSpaceOnUse" x1="348.9355" y1="338.5488" x2="1459.1543" y2="338.5488">
				<stop  offset="0" style="stop-color:#EE2A7B"/>
				<stop  offset="1" style="stop-color:#662D91"/>
			</linearGradient>
			<path class="st21" d="M1304.96,393.91c10.71,10.46,16.07,25.62,16.07,45.48v82.93h-17.88v-80.86c0-15.38-3.85-27.12-11.53-35.25
				c-7.69-8.12-18.19-12.18-31.49-12.18c-13.65,0-24.54,4.32-32.65,12.96c-8.12,8.64-12.18,21.34-12.18,38.1v77.23h-18.14v-141.5
				h18.14v24.1c4.49-8.64,10.97-15.25,19.44-19.83c8.46-4.58,18.05-6.87,28.77-6.87C1280.42,378.23,1294.24,383.46,1304.96,393.91z"
				/>
			<linearGradient id="SVGID_21_" gradientUnits="userSpaceOnUse" x1="348.9355" y1="338.5488" x2="1459.1543" y2="338.5488">
				<stop  offset="0" style="stop-color:#EE2A7B"/>
				<stop  offset="1" style="stop-color:#662D91"/>
			</linearGradient>
			<path class="st22" d="M1370.13,513.12c-10.28-7.52-16.03-17.75-17.23-30.71h18.66c0.86,7.95,4.62,14.38,11.27,19.31
				c6.65,4.92,15.59,7.39,26.82,7.39c9.85,0,17.58-2.33,23.19-7c5.61-4.66,8.42-10.45,8.42-17.36c0-4.84-1.55-8.81-4.67-11.92
				c-3.11-3.11-7.04-5.57-11.79-7.38c-4.75-1.81-11.19-3.76-19.31-5.83c-10.54-2.76-19.09-5.53-25.66-8.29
				c-6.57-2.76-12.14-6.87-16.71-12.31c-4.58-5.44-6.87-12.74-6.87-21.9c0-6.91,2.07-13.3,6.22-19.18
				c4.15-5.87,10.02-10.54,17.62-13.99c7.6-3.46,16.24-5.18,25.92-5.18c15.2,0,27.47,3.85,36.8,11.53
				c9.33,7.69,14.34,18.27,15.03,31.75h-18.14c-0.52-8.29-3.76-14.99-9.72-20.08c-5.96-5.09-14.12-7.65-24.49-7.65
				c-9.16,0-16.59,2.16-22.29,6.48c-5.7,4.32-8.55,9.68-8.55,16.07c0,5.53,1.68,10.07,5.05,13.61c3.37,3.54,7.56,6.31,12.57,8.29
				c5.01,1.99,11.75,4.19,20.21,6.61c10.19,2.77,18.31,5.44,24.36,8.04c6.05,2.59,11.23,6.39,15.55,11.4
				c4.32,5.01,6.56,11.66,6.74,19.96c0,7.6-2.07,14.38-6.22,20.34s-9.94,10.67-17.36,14.12c-7.43,3.46-15.98,5.18-25.66,5.18
				C1393.67,524.4,1380.41,520.64,1370.13,513.12z"/>
		</g>
	</g>
	<linearGradient id="SVGID_22_" gradientUnits="userSpaceOnUse" x1="164.001" y1="254.7026" x2="238.389" y2="254.7026">
		<stop  offset="0" style="stop-color:#EE2A7B"/>
		<stop  offset="1" style="stop-color:#662D91"/>
	</linearGradient>
	<path class="st23" d="M201.2,291.9L201.2,291.9c-20.54,0-37.19-16.65-37.19-37.19v0c0-20.54,16.65-37.19,37.19-37.19h0
		c20.54,0,37.19,16.65,37.19,37.19v0C238.39,275.24,221.74,291.9,201.2,291.9z"/>
</g>
</svg>
