<svg xmlns="http://www.w3.org/2000/svg" viewBox="0 0 52.03 52"><defs><style>.cls-1{fill:#14153b;}</style></defs><g id="Layer_2" data-name="Layer 2"><g id="home"><g id="Services"><path class="cls-1" d="M27.54,52h-3l-.45-.09c-1.41-.22-2.86-.34-4.25-.67A26,26,0,0,1,.47,21.13,25.22,25.22,0,0,1,8.4,6.89,25.43,25.43,0,0,1,29.6.24,25,25,0,0,1,43.15,6.43a25.46,25.46,0,0,1,8.48,15.09c.17,1,.27,2,.4,2.95v3.05c0,.18-.07.35-.09.53-.13.94-.2,1.89-.38,2.82a25.37,25.37,0,0,1-7.05,13.4,25.34,25.34,0,0,1-14,7.33C29.52,51.77,28.53,51.87,27.54,52ZM15.7,16.19a39.5,39.5,0,0,0-1.07,8.24h9.84V16.8Zm11.87,8.25h9.85a40.54,40.54,0,0,0-1.06-8.18l-8.79.55Zm-16.15,0,1.11-8.79-.2-.05c-1.86-.44-3.72-.86-5.57-1.33a.48.48,0,0,0-.66.29,22.23,22.23,0,0,0-2.5,6.51c-.22,1.1-.35,2.22-.53,3.37ZM45.83,37.6a22.63,22.63,0,0,0,3.08-10h-8.3L39.5,36.12Zm0-23.2-6.3,1.4c.36,2.87.72,5.74,1.08,8.63h8.3A22.43,22.43,0,0,0,45.83,14.4ZM27.57,27.54V35l8.77.6a40.48,40.48,0,0,0,1.07-8.09Zm-11.88,8L24.45,35V27.54H14.63A39.88,39.88,0,0,0,15.69,35.57Zm-4.25-8H3.18a.38.38,0,0,0,0,.17A22.09,22.09,0,0,0,6,37.27a.63.63,0,0,0,.53.14c1.62-.36,3.22-.75,4.84-1.12.4-.09.81-.15,1.12-.2ZM27.57,13.73l7.92-.47c-.14-.39-.24-.67-.35-.95a19.34,19.34,0,0,0-4.08-6.83,7.78,7.78,0,0,0-3.49-2.2Zm-11,24.84a19.54,19.54,0,0,0,4.83,8.19,7.69,7.69,0,0,0,3,1.77V38.1Zm7.87-24.85V3.29a6.72,6.72,0,0,0-2.68,1.45,17.37,17.37,0,0,0-4.6,6.83c-.22.51-.39,1-.62,1.63Zm3.08,34.89c4.53-1.87,6.26-5.82,8-10l-7.93-.51c0,.18,0,.25,0,.31ZM8,40.13c1.52,2.55,7.84,7.18,9.71,7.14A26.46,26.46,0,0,1,13.47,39Zm36,.14-5.45-1.2a28,28,0,0,1-4.18,8.25A22.33,22.33,0,0,0,44,40.27ZM34.49,4.7a27.92,27.92,0,0,1,4.09,8.14L44,11.72A22.43,22.43,0,0,0,34.49,4.7Zm-16.94,0a22.53,22.53,0,0,0-9.39,6.88l5.34,1.17A27.69,27.69,0,0,1,17.55,4.7Z"/></g></g></g></svg>