<svg xmlns="http://www.w3.org/2000/svg" xmlns:xlink="http://www.w3.org/1999/xlink" viewBox="0 0 55.19 26"><defs><style>.cls-1{fill:url(#linear-gradient);}.cls-2{fill:url(#linear-gradient-2);}</style><linearGradient id="linear-gradient" x1="-2319.4" y1="-762.95" x2="-2293.4" y2="-762.95" gradientTransform="translate(790.54 -2293.4) rotate(-90)" gradientUnits="userSpaceOnUse"><stop offset="0" stop-color="#ee2a7b"/><stop offset="1" stop-color="#662d91"/></linearGradient><linearGradient id="linear-gradient-2" x1="-2312.03" y1="-776.69" x2="-2300.78" y2="-776.69" gradientTransform="translate(2320.26 789.69)" xlink:href="#linear-gradient"/></defs><g id="Layer_2" data-name="Layer 2"><g id="home"><g id="our_work" data-name="our work"><path class="cls-1" d="M42.21,0c-6,0-12.53,8.58-14.62,11.56C25.48,8.56,19,0,13,0a13,13,0,1,0,0,26c6,0,12.52-8.58,14.62-11.56,2.11,3,8.63,11.53,14.6,11.53a13,13,0,0,0,0-26ZM13,24.38A11.37,11.37,0,1,1,13,1.65c5.51,0,12.16,9.22,13.63,11.36C25.15,15.16,18.5,24.38,13,24.38Zm29.22,0c-5.51,0-12.16-9.22-13.64-11.36C30.05,10.84,36.7,1.62,42.21,1.62a11.37,11.37,0,0,1,0,22.73Z"/><rect class="cls-2" x="8.23" y="7.37" width="11.26" height="11.26" rx="5.41" transform="matrix(0, -1, 1, 0, 0.86, 26.86)"/></g></g></g></svg>