<svg xmlns="http://www.w3.org/2000/svg" viewBox="0 0 192.49 53.4"><defs><style>.cls-1{fill:#fff;}</style></defs><g id="Layer_2" data-name="Layer 2"><g id="Layer_1-2" data-name="Layer 1"><path class="cls-1" d="M2.6,49.15a18,18,0,0,1-1.09-1.69A11.34,11.34,0,0,1,2.28,35,11.53,11.53,0,0,1,3.9,33.17c4.72-4.45,9.46-8.88,14.17-13.34a8.15,8.15,0,0,0,2.53-8.06A8.36,8.36,0,1,0,4.9,17.2a10.84,10.84,0,0,0,1.56,2.26c.65.79,1.4,1.5,2.09,2.26a1.58,1.58,0,0,1,.17,1.94,1.56,1.56,0,0,1-1.84.63A1.41,1.41,0,0,1,6.31,24a25.26,25.26,0,0,1-3.65-4.22,11.31,11.31,0,0,1,0-12.15A21.18,21.18,0,0,1,4,5.76L5.12,4.67c.56-.37,1.09-.79,1.68-1.1a11.22,11.22,0,0,1,12.41.72,11.48,11.48,0,0,1,2.55,16.17,14,14,0,0,1-1.63,1.81C15.42,26.73,10.67,31.16,6,35.61a8.18,8.18,0,0,0-2.54,8.06,8.35,8.35,0,1,0,15.69-5.44A11.29,11.29,0,0,0,17.57,36c-.64-.77-1.38-1.47-2.06-2.22a1.6,1.6,0,0,1-.15-2,1.58,1.58,0,0,1,1.83-.57,1.34,1.34,0,0,1,.54.32,24.8,24.8,0,0,1,3.65,4.21,11.12,11.12,0,0,1,0,12.14C18.82,52,15,53.73,10.15,53.27a10.91,10.91,0,0,1-6.06-2.66l-.4-.3Z"/><path class="cls-1" d="M43.71,6.36a5.79,5.79,0,0,1,1.54,4.35v7.93H43.54V10.91a4.73,4.73,0,0,0-1.1-3.37,4,4,0,0,0-3-1.17A4.08,4.08,0,0,0,36.3,7.61a5.17,5.17,0,0,0-1.16,3.64v7.39H33.4V5.11h1.74v2.3A4.41,4.41,0,0,1,37,5.52a5.65,5.65,0,0,1,2.75-.66A5.42,5.42,0,0,1,43.71,6.36Zm17.58,6.18H50.06a5.52,5.52,0,0,0,.74,2.63,4.42,4.42,0,0,0,1.76,1.65,5.18,5.18,0,0,0,2.38.56,4.81,4.81,0,0,0,2.84-.82,3.86,3.86,0,0,0,1.53-2.21h1.83A5.78,5.78,0,0,1,59,17.59a6.5,6.5,0,0,1-4.08,1.25A6.84,6.84,0,0,1,51.52,18a6.09,6.09,0,0,1-2.37-2.43,7.58,7.58,0,0,1-.85-3.68,7.79,7.79,0,0,1,.84-3.69A5.82,5.82,0,0,1,51.5,5.75a7,7,0,0,1,3.44-.84,6.66,6.66,0,0,1,3.39.84A5.86,5.86,0,0,1,60.56,8a6.46,6.46,0,0,1,.78,3.16C61.34,11.77,61.32,12.23,61.29,12.54ZM59,8.55a4,4,0,0,0-1.72-1.61,5.3,5.3,0,0,0-2.38-.54,4.76,4.76,0,0,0-3.3,1.23,5,5,0,0,0-1.51,3.5h9.52A4.88,4.88,0,0,0,59,8.55ZM69.32,17,73.88,5.11h1.84L70.29,18.64h-2L62.9,5.11h1.86Zm21-4.42H79a5.41,5.41,0,0,0,.74,2.63,4.36,4.36,0,0,0,1.76,1.65,5.18,5.18,0,0,0,2.38.56,4.83,4.83,0,0,0,2.84-.82,3.8,3.8,0,0,0,1.52-2.21h1.84A5.78,5.78,0,0,1,88,17.59a6.5,6.5,0,0,1-4.08,1.25A6.84,6.84,0,0,1,80.5,18a6,6,0,0,1-2.37-2.43,7.58,7.58,0,0,1-.85-3.68,7.79,7.79,0,0,1,.84-3.69,5.82,5.82,0,0,1,2.36-2.43,6.93,6.93,0,0,1,3.44-.84,6.6,6.6,0,0,1,3.38.84A5.79,5.79,0,0,1,89.53,8a6.36,6.36,0,0,1,.79,3.16C90.32,11.77,90.3,12.23,90.27,12.54ZM88,8.55a4.1,4.1,0,0,0-1.72-1.61,5.33,5.33,0,0,0-2.38-.54,4.76,4.76,0,0,0-3.3,1.23A5,5,0,0,0,79,11.13h9.52A4.88,4.88,0,0,0,88,8.55Zm9-3a5.62,5.62,0,0,1,2.89-.69V6.67h-.47a4.42,4.42,0,0,0-3,1,4.37,4.37,0,0,0-1.14,3.4v7.56H93.49V5.11h1.73v2.4A4.33,4.33,0,0,1,97,5.55Zm24.48,7H110.22a5.52,5.52,0,0,0,.74,2.63,4.42,4.42,0,0,0,1.76,1.65,5.18,5.18,0,0,0,2.38.56,4.81,4.81,0,0,0,2.84-.82,3.86,3.86,0,0,0,1.53-2.21h1.83a5.78,5.78,0,0,1-2.12,3.24,6.5,6.5,0,0,1-4.08,1.25,6.84,6.84,0,0,1-3.42-.86,6,6,0,0,1-2.36-2.43,7.47,7.47,0,0,1-.86-3.68,7.79,7.79,0,0,1,.84-3.69,5.82,5.82,0,0,1,2.36-2.43,7,7,0,0,1,3.44-.84,6.66,6.66,0,0,1,3.39.84A5.86,5.86,0,0,1,120.72,8a6.46,6.46,0,0,1,.78,3.16C121.5,11.77,121.48,12.23,121.45,12.54Zm-2.32-4a4,4,0,0,0-1.72-1.61A5.3,5.3,0,0,0,115,6.4a4.76,4.76,0,0,0-3.3,1.23,5,5,0,0,0-1.51,3.5h9.52A4.88,4.88,0,0,0,119.13,8.55ZM135,6.36a5.79,5.79,0,0,1,1.54,4.35v7.93h-1.71V10.91a4.73,4.73,0,0,0-1.1-3.37,4,4,0,0,0-3-1.17,4.08,4.08,0,0,0-3.12,1.24,5.12,5.12,0,0,0-1.16,3.64v7.39h-1.74V5.11h1.74v2.3a4.41,4.41,0,0,1,1.86-1.89A5.62,5.62,0,0,1,131,4.86,5.42,5.42,0,0,1,135,6.36Zm5.43,1.83a6,6,0,0,1,2.32-2.43,6.5,6.5,0,0,1,3.33-.85,6.07,6.07,0,0,1,3.22.87A5.24,5.24,0,0,1,151.39,8V.3h1.74V18.64h-1.74v-3a5.18,5.18,0,0,1-2,2.31,6,6,0,0,1-3.32.91A6.47,6.47,0,0,1,142.7,18a6,6,0,0,1-2.3-2.45,7.85,7.85,0,0,1-.83-3.67A7.66,7.66,0,0,1,140.41,8.19ZM150.72,9a4.72,4.72,0,0,0-1.82-1.91,4.92,4.92,0,0,0-2.54-.67,5.14,5.14,0,0,0-2.58.64A4.6,4.6,0,0,0,142,8.94a6.16,6.16,0,0,0-.65,2.91,6.24,6.24,0,0,0,.65,2.91,4.62,4.62,0,0,0,1.8,1.91,5.26,5.26,0,0,0,5.12,0,4.72,4.72,0,0,0,1.82-1.91,6,6,0,0,0,.67-2.88A5.88,5.88,0,0,0,150.72,9Zm6.35-6.82a1.24,1.24,0,0,1-.37-.92,1.19,1.19,0,0,1,.37-.9A1.23,1.23,0,0,1,158,0a1.21,1.21,0,0,1,.89.36,1.2,1.2,0,0,1,.38.9,1.24,1.24,0,0,1-.38.92,1.19,1.19,0,0,1-.89.37A1.2,1.2,0,0,1,157.07,2.18Zm1.76,2.93V18.64h-1.74V5.11Zm14.25,1.25a5.79,5.79,0,0,1,1.54,4.35v7.93h-1.71V10.91a4.69,4.69,0,0,0-1.11-3.37,3.92,3.92,0,0,0-3-1.17,4.08,4.08,0,0,0-3.12,1.24,5.12,5.12,0,0,0-1.17,3.64v7.39h-1.73V5.11h1.73v2.3a4.41,4.41,0,0,1,1.86-1.89,5.68,5.68,0,0,1,2.75-.66A5.44,5.44,0,0,1,173.08,6.36Zm14.38-.56a5.22,5.22,0,0,1,2,2.26V5.11h1.74V19a6.55,6.55,0,0,1-.81,3.29,5.63,5.63,0,0,1-2.24,2.22,6.77,6.77,0,0,1-3.28.78A7.19,7.19,0,0,1,180.58,24a5.28,5.28,0,0,1-2.15-3.37h1.72a4.11,4.11,0,0,0,1.69,2.26,5.39,5.39,0,0,0,3.06.84,4.81,4.81,0,0,0,2.36-.56,4,4,0,0,0,1.64-1.64,5.4,5.4,0,0,0,.59-2.58V15.64a5.36,5.36,0,0,1-2.05,2.29,5.88,5.88,0,0,1-3.3.91A6.45,6.45,0,0,1,180.8,18a6,6,0,0,1-2.3-2.45,7.73,7.73,0,0,1-.83-3.67,7.66,7.66,0,0,1,.83-3.66,5.93,5.93,0,0,1,2.3-2.43,6.53,6.53,0,0,1,3.34-.85A6.12,6.12,0,0,1,187.46,5.8ZM188.82,9A4.79,4.79,0,0,0,187,7.09a5,5,0,0,0-2.54-.67,5.14,5.14,0,0,0-2.58.64,4.6,4.6,0,0,0-1.8,1.88,6.16,6.16,0,0,0-.65,2.91,6.24,6.24,0,0,0,.65,2.91,4.62,4.62,0,0,0,1.8,1.91,5.26,5.26,0,0,0,5.12,0,4.79,4.79,0,0,0,1.82-1.91,6,6,0,0,0,.67-2.88A5.88,5.88,0,0,0,188.82,9ZM35.68,51.75a5.91,5.91,0,0,1-2.48-4.41h2.68a3.83,3.83,0,0,0,1.62,2.77,6.3,6.3,0,0,0,3.85,1.06,5,5,0,0,0,3.32-1,3.1,3.1,0,0,0,1.21-2.49A2.28,2.28,0,0,0,45.21,46a4.65,4.65,0,0,0-1.69-1.06,26.48,26.48,0,0,0-2.77-.84,28.15,28.15,0,0,1-3.68-1.19,6.26,6.26,0,0,1-2.4-1.77,4.74,4.74,0,0,1-1-3.14,4.63,4.63,0,0,1,.89-2.75,6.13,6.13,0,0,1,2.53-2,9,9,0,0,1,3.72-.74,8.06,8.06,0,0,1,5.28,1.65,6.06,6.06,0,0,1,2.15,4.56h-2.6a4,4,0,0,0-1.39-2.88,5.26,5.26,0,0,0-3.52-1.1,5.17,5.17,0,0,0-3.2.93,2.81,2.81,0,0,0-1.22,2.31,2.73,2.73,0,0,0,.72,2,5.1,5.1,0,0,0,1.81,1.19c.71.28,1.68.6,2.9,1a26.84,26.84,0,0,1,3.49,1.15,6.11,6.11,0,0,1,2.23,1.63,4.43,4.43,0,0,1,1,2.87,5,5,0,0,1-.89,2.92,6.12,6.12,0,0,1-2.49,2,8.62,8.62,0,0,1-3.69.75A9.39,9.39,0,0,1,35.68,51.75Zm21.41.33a9.27,9.27,0,0,1-3.6-3.64,11.13,11.13,0,0,1-1.32-5.52,10.9,10.9,0,0,1,1.34-5.52,9.33,9.33,0,0,1,3.64-3.65,11.1,11.1,0,0,1,10.35,0,9.22,9.22,0,0,1,3.65,3.65,11.11,11.11,0,0,1,1.32,5.52,11.06,11.06,0,0,1-1.34,5.5,9.19,9.19,0,0,1-3.68,3.66,10.62,10.62,0,0,1-5.21,1.29A10.31,10.31,0,0,1,57.09,52.08ZM66,50.19a7,7,0,0,0,2.77-2.75,8.92,8.92,0,0,0,1.06-4.52,9.1,9.1,0,0,0-1-4.52A6.8,6.8,0,0,0,66,35.65a8.06,8.06,0,0,0-7.44,0,6.7,6.7,0,0,0-2.73,2.75,9.21,9.21,0,0,0-1,4.52,9.24,9.24,0,0,0,1,4.52,6.84,6.84,0,0,0,2.71,2.75,7.77,7.77,0,0,0,3.7.91A7.87,7.87,0,0,0,66,50.19ZM79.83,25.55V53.07h-2.6V25.55Zm23.5,7.22v20.3h-2.6V49.5A6.3,6.3,0,0,1,98,52.4a8.59,8.59,0,0,1-4.16,1,8.16,8.16,0,0,1-6-2.25c-1.54-1.5-2.3-3.67-2.3-6.52V32.77h2.56V44.33a7.06,7.06,0,0,0,1.66,5.06,5.91,5.91,0,0,0,4.51,1.74A6.13,6.13,0,0,0,99,49.28a7.75,7.75,0,0,0,1.75-5.47v-11ZM112.66,35V47.57a3.59,3.59,0,0,0,.71,2.56,3.48,3.48,0,0,0,2.49.71h2.38v2.23h-2.79a5.75,5.75,0,0,1-4.09-1.28A5.68,5.68,0,0,1,110,47.57V35H107.2V32.77H110v-5.1h2.64v5.1h5.58V35Zm9.82-6.58a1.88,1.88,0,0,1-.56-1.38,1.81,1.81,0,0,1,.56-1.35,1.92,1.92,0,0,1,2.67,0,1.77,1.77,0,0,1,.56,1.35,1.84,1.84,0,0,1-.56,1.38,1.87,1.87,0,0,1-2.67,0Zm2.64,4.39v20.3h-2.61V32.77Zm9.64,19.31a9.27,9.27,0,0,1-3.6-3.64,11.13,11.13,0,0,1-1.32-5.52,10.9,10.9,0,0,1,1.34-5.52,9.33,9.33,0,0,1,3.64-3.65,11.12,11.12,0,0,1,10.36,0,9.26,9.26,0,0,1,3.64,3.65,11.11,11.11,0,0,1,1.32,5.52,11.06,11.06,0,0,1-1.34,5.5,9.19,9.19,0,0,1-3.68,3.66,10.62,10.62,0,0,1-5.21,1.29A10.34,10.34,0,0,1,134.76,52.08Zm8.87-1.89a7,7,0,0,0,2.77-2.75,8.92,8.92,0,0,0,1.06-4.52,9.1,9.1,0,0,0-1-4.52,6.8,6.8,0,0,0-2.75-2.75,8.06,8.06,0,0,0-7.44,0,6.7,6.7,0,0,0-2.73,2.75,9.21,9.21,0,0,0-1,4.52,9.24,9.24,0,0,0,1,4.52,6.84,6.84,0,0,0,2.71,2.75,7.79,7.79,0,0,0,3.7.91A7.87,7.87,0,0,0,143.63,50.19Zm26.74-15.55q2.3,2.25,2.3,6.53v11.9h-2.56V41.47a7.11,7.11,0,0,0-1.66-5.06,5.94,5.94,0,0,0-4.52-1.75,6.12,6.12,0,0,0-4.68,1.86A7.68,7.68,0,0,0,157.5,42V53.07h-2.6V32.77h2.6v3.45a6.76,6.76,0,0,1,2.79-2.84,8.49,8.49,0,0,1,4.13-1A8.2,8.2,0,0,1,170.37,34.64Zm9.35,17.11a5.87,5.87,0,0,1-2.47-4.41h2.67a3.87,3.87,0,0,0,1.62,2.77,6.3,6.3,0,0,0,3.85,1.06,5.07,5.07,0,0,0,3.33-1,3.12,3.12,0,0,0,1.2-2.49,2.31,2.31,0,0,0-.66-1.71,4.78,4.78,0,0,0-1.7-1.06,26.48,26.48,0,0,0-2.77-.84,28.15,28.15,0,0,1-3.68-1.19,6.26,6.26,0,0,1-2.4-1.77,5.1,5.1,0,0,1-.09-5.89,6.19,6.19,0,0,1,2.53-2,9,9,0,0,1,3.72-.74,8.06,8.06,0,0,1,5.28,1.65,6,6,0,0,1,2.15,4.56h-2.6a4,4,0,0,0-1.39-2.88,5.26,5.26,0,0,0-3.52-1.1,5.12,5.12,0,0,0-3.19.93,2.8,2.8,0,0,0-1.23,2.31,2.73,2.73,0,0,0,.72,2,5.1,5.1,0,0,0,1.81,1.19c.72.28,1.68.6,2.9,1a26.84,26.84,0,0,1,3.49,1.15,6.11,6.11,0,0,1,2.23,1.63,4.43,4.43,0,0,1,1,2.87,5,5,0,0,1-.89,2.92,6.12,6.12,0,0,1-2.49,2,8.61,8.61,0,0,1-3.68.75A9.42,9.42,0,0,1,179.72,51.75Z"/><rect class="cls-1" x="6.67" y="9.34" width="10.67" height="10.67" rx="5.34"/></g></g></svg>